<svg xmlns="http://www.w3.org/2000/svg" xmlns:xlink="http://www.w3.org/1999/xlink" width="1080" zoomAndPan="magnify" viewBox="0 0 810 809.999993" height="1080" preserveAspectRatio="xMidYMid meet" version="1.0"><path fill="#ffffff" d="M 396.835938 738.613281 C 392.199219 729.925781 387.566406 720.65625 382.933594 711.96875 C 376.5625 716.601562 370.191406 721.238281 363.820312 725.289062 C 371.351562 739.769531 379.457031 754.828125 386.410156 769.308594 C 388.148438 773.363281 392.199219 775.679688 396.835938 775.679688 C 401.46875 775.679688 404.941406 773.363281 407.261719 769.308594 C 439.695312 702.703125 478.5 638.410156 518.464844 575.28125 C 492.402344 605.976562 466.335938 636.675781 437.378906 665.054688 C 422.898438 689.378906 409.578125 713.707031 396.835938 738.613281 Z M 396.835938 738.613281 " fill-opacity="1" fill-rule="nonzero"/><path fill="#ffffff" d="M 165.15625 698.648438 C 167.472656 702.121094 170.949219 703.859375 175.003906 703.859375 C 177.320312 703.859375 179.636719 703.28125 181.375 702.121094 C 186.585938 698.648438 188.324219 691.699219 184.851562 685.90625 C 181.375 680.691406 178.480469 674.902344 176.742188 669.109375 C 175.003906 662.738281 168.632812 659.261719 162.261719 661.578125 C 156.46875 663.316406 152.992188 669.6875 154.730469 676.058594 C 157.046875 684.167969 160.523438 691.699219 165.15625 698.648438 Z M 165.15625 698.648438 " fill-opacity="1" fill-rule="nonzero"/><path fill="#ffffff" d="M 393.9375 673.164062 C 399.730469 668.53125 404.941406 663.316406 410.734375 658.105469 C 415.367188 653.472656 415.367188 646.519531 411.3125 641.886719 C 407.261719 637.253906 399.730469 636.675781 395.097656 641.308594 C 389.882812 646.519531 384.09375 651.152344 378.878906 655.789062 C 374.246094 659.84375 373.667969 667.371094 377.722656 672.003906 C 380.039062 674.902344 382.933594 676.058594 386.410156 676.058594 C 388.726562 676.058594 391.621094 675.480469 393.9375 673.164062 Z M 393.9375 673.164062 " fill-opacity="1" fill-rule="nonzero"/><path fill="#ffffff" d="M 164.578125 640.148438 C 169.789062 640.148438 175.003906 636.09375 175.582031 630.882812 C 176.742188 624.511719 178.480469 617.5625 180.796875 610.609375 C 182.53125 604.820312 179.636719 597.867188 173.84375 596.128906 C 168.054688 593.8125 161.101562 597.289062 159.363281 603.660156 C 157.046875 611.191406 154.730469 618.71875 152.992188 626.828125 C 151.835938 633.199219 155.890625 638.992188 162.261719 640.730469 C 162.839844 640.148438 163.417969 640.148438 164.578125 640.148438 Z M 164.578125 640.148438 " fill-opacity="1" fill-rule="nonzero"/><path fill="#ffffff" d="M 440.273438 594.394531 C 435.640625 599.605469 430.429688 605.398438 425.214844 610.609375 C 420.582031 615.242188 421.160156 622.773438 425.792969 626.828125 C 428.109375 629.144531 431.007812 630.304688 433.902344 630.304688 C 436.800781 630.304688 439.695312 629.144531 442.011719 626.828125 C 447.222656 621.613281 452.4375 615.824219 457.070312 610.609375 C 461.125 605.976562 461.125 598.449219 456.492188 594.394531 C 451.859375 589.179688 444.90625 589.757812 440.273438 594.394531 Z M 440.273438 594.394531 " fill-opacity="1" fill-rule="nonzero"/><path fill="#ffffff" d="M 326.753906 694.015625 C 321.539062 697.488281 319.800781 704.441406 322.699219 709.652344 C 325.015625 713.128906 328.488281 715.445312 332.542969 715.445312 C 334.28125 715.445312 336.597656 714.867188 338.335938 713.707031 C 344.707031 709.652344 351.078125 705.597656 357.449219 700.964844 C 362.664062 697.488281 363.820312 689.960938 360.34375 684.746094 C 356.871094 679.535156 349.339844 678.375 344.128906 681.851562 C 338.914062 686.484375 333.125 690.539062 326.753906 694.015625 Z M 326.753906 694.015625 " fill-opacity="1" fill-rule="nonzero"/><path fill="#ffffff" d="M 271.730469 740.351562 C 272.308594 740.351562 272.886719 740.351562 274.046875 740.351562 C 281.574219 739.191406 289.105469 736.875 297.214844 733.980469 C 303.003906 731.660156 306.480469 725.289062 304.164062 719.5 C 301.847656 713.707031 295.476562 710.230469 289.683594 712.546875 C 283.3125 714.867188 276.363281 716.601562 269.992188 717.761719 C 263.621094 718.917969 259.566406 724.710938 260.722656 731.082031 C 261.882812 736.296875 266.515625 740.351562 271.730469 740.351562 Z M 271.730469 740.351562 " fill-opacity="1" fill-rule="nonzero"/><path fill="#ffffff" d="M 198.75 572.964844 C 202.226562 567.171875 206.28125 561.378906 210.335938 555.585938 C 214.386719 550.375 213.230469 543.425781 208.015625 539.371094 C 202.804688 535.316406 195.855469 536.472656 191.800781 541.6875 C 187.167969 548.058594 182.53125 554.429688 178.480469 560.800781 C 175.003906 566.011719 176.742188 573.542969 182.53125 576.4375 C 184.269531 577.597656 186.585938 578.175781 188.324219 578.175781 C 192.957031 578.175781 196.433594 576.4375 198.75 572.964844 Z M 198.75 572.964844 " fill-opacity="1" fill-rule="nonzero"/><path fill="#ffffff" d="M 230.605469 717.183594 C 224.234375 716.023438 217.863281 713.707031 212.652344 710.8125 C 206.859375 707.914062 199.910156 710.230469 197.011719 716.023438 C 194.117188 721.816406 196.433594 728.765625 202.226562 731.660156 C 209.753906 735.136719 217.285156 738.03125 225.394531 739.769531 C 225.972656 739.769531 227.128906 739.769531 227.710938 739.769531 C 232.921875 739.769531 237.554688 736.296875 238.714844 730.503906 C 241.03125 724.710938 236.976562 718.917969 230.605469 717.183594 Z M 230.605469 717.183594 " fill-opacity="1" fill-rule="nonzero"/><path fill="#ffffff" d="M 486.609375 576.4375 C 491.242188 570.644531 496.457031 564.855469 501.089844 559.640625 C 505.144531 555.007812 504.566406 547.476562 499.929688 543.425781 C 495.296875 539.371094 487.769531 539.949219 483.714844 544.582031 C 479.078125 549.796875 474.445312 555.585938 469.234375 561.378906 C 465.179688 566.011719 465.757812 573.542969 470.390625 577.597656 C 472.707031 579.335938 475.027344 580.492188 477.921875 580.492188 C 481.398438 580.492188 484.292969 578.753906 486.609375 576.4375 Z M 486.609375 576.4375 " fill-opacity="1" fill-rule="nonzero"/><path fill="#ffffff" d="M 531.207031 254.984375 C 541.054688 257.300781 549.164062 254.40625 555.535156 252.667969 C 556.691406 252.089844 558.429688 252.089844 559.589844 251.511719 C 561.324219 259.039062 562.484375 266.570312 563.0625 274.097656 L 586.230469 275.257812 C 578.703125 176.792969 497.035156 98.023438 396.835938 98.023438 C 292.578125 98.023438 207.4375 183.746094 207.4375 289.15625 C 207.4375 394.570312 292.578125 480.292969 396.835938 480.292969 C 400.890625 480.292969 404.363281 480.292969 408.417969 479.710938 C 408.996094 473.339844 411.3125 466.390625 414.789062 461.179688 L 418.84375 455.386719 C 411.3125 456.546875 403.785156 457.125 396.253906 457.125 C 355.710938 457.125 318.644531 442.644531 290.261719 418.316406 C 293.738281 416.582031 297.214844 413.683594 300.109375 410.789062 C 307.058594 403.257812 309.957031 393.414062 308.21875 384.726562 C 307.640625 382.410156 308.21875 378.933594 309.375 374.878906 L 309.375 374.300781 C 309.957031 371.984375 310.535156 369.667969 311.691406 367.347656 C 314.011719 362.136719 316.328125 355.1875 315.746094 347.078125 C 314.589844 332.019531 303.585938 323.332031 294.898438 316.378906 C 287.367188 310.589844 283.3125 306.535156 282.734375 301.320312 C 282.152344 294.371094 281.574219 286.839844 282.734375 279.3125 C 282.734375 278.734375 282.734375 278.152344 282.734375 278.152344 C 282.152344 256.722656 253.195312 245.71875 236.398438 242.824219 C 240.453125 228.34375 246.246094 215.019531 253.773438 202.859375 C 261.304688 208.648438 271.148438 213.285156 281.574219 213.285156 C 282.152344 213.285156 283.3125 213.285156 283.890625 213.285156 C 294.898438 212.703125 304.164062 205.753906 310.535156 195.328125 C 312.851562 191.855469 316.90625 189.535156 323.855469 187.21875 C 326.753906 186.0625 329.070312 185.484375 331.386719 184.324219 C 338.914062 180.847656 349.917969 174.476562 354.554688 161.734375 C 357.449219 153.046875 356.292969 144.9375 355.132812 137.410156 C 354.554688 134.511719 353.394531 131.039062 351.65625 126.984375 C 366.136719 122.929688 380.617188 120.613281 396.253906 120.613281 C 410.15625 120.613281 424.058594 122.351562 436.800781 125.824219 C 435.640625 132.777344 436.800781 139.726562 437.378906 144.359375 L 437.957031 146.675781 C 438.535156 148.992188 438.535156 150.730469 438.535156 151.890625 C 420.003906 151.308594 400.890625 156.523438 399.152344 173.320312 C 399.152344 173.898438 399.152344 174.476562 399.152344 174.476562 C 399.152344 178.53125 397.992188 180.847656 397.992188 181.429688 C 397.414062 181.429688 396.835938 182.007812 396.835938 182.007812 C 393.9375 183.746094 389.882812 185.484375 386.988281 190.117188 C 381.777344 198.804688 380.617188 205.753906 384.671875 212.125 C 390.464844 222.550781 403.785156 221.972656 419.421875 221.390625 C 430.429688 220.8125 446.644531 220.234375 451.277344 225.445312 C 451.859375 226.027344 453.015625 227.183594 453.015625 230.660156 C 452.4375 230.660156 450.699219 231.238281 447.804688 231.238281 L 446.644531 231.238281 C 429.847656 230.660156 426.375 229.5 425.214844 229.5 C 410.734375 225.445312 393.359375 219.65625 374.246094 224.867188 C 352.816406 230.082031 336.019531 249.773438 333.703125 271.78125 C 331.386719 293.792969 338.914062 309.429688 356.289062 317.539062 L 358.609375 318.117188 C 366.136719 321.59375 374.246094 325.648438 385.25 324.488281 C 385.828125 324.488281 385.828125 324.488281 386.410156 324.488281 C 390.464844 323.910156 397.992188 323.910156 400.308594 326.226562 C 402.046875 327.386719 402.046875 330.859375 401.46875 333.175781 C 400.890625 340.128906 403.785156 345.339844 405.523438 348.816406 C 406.101562 349.972656 406.679688 351.132812 406.679688 351.710938 C 407.839844 354.605469 407.839844 358.660156 407.839844 362.714844 C 407.839844 366.769531 408.417969 371.402344 408.996094 376.035156 C 411.3125 387.621094 415.949219 396.886719 422.320312 403.257812 C 426.953125 407.894531 432.746094 410.210938 438.535156 410.210938 C 444.328125 410.210938 451.277344 407.894531 457.648438 403.257812 C 464.019531 398.625 471.550781 392.832031 477.34375 385.882812 L 448.382812 381.25 C 447.222656 382.410156 445.488281 383.566406 444.328125 384.144531 C 441.433594 387.621094 439.117188 387.621094 439.117188 387.621094 C 436.21875 384.726562 434.480469 380.671875 432.746094 375.457031 C 426.953125 370.824219 422.320312 364.453125 420.003906 356.921875 C 417.105469 347.078125 418.84375 336.652344 424.058594 328.542969 C 423.476562 318.695312 419.421875 312.324219 415.367188 308.851562 C 404.363281 298.425781 386.988281 300.742188 382.355469 301.320312 C 377.722656 301.320312 374.246094 300.164062 367.875 296.6875 L 366.136719 296.109375 C 359.1875 293.210938 355.132812 288 356.871094 274.097656 C 358.027344 261.9375 368.453125 250.351562 380.039062 247.457031 C 392.199219 244.558594 404.363281 247.457031 418.84375 252.089844 C 422.898438 253.25 430.429688 254.40625 445.488281 254.984375 L 446.644531 254.984375 C 456.492188 255.566406 464.019531 253.25 469.234375 248.613281 C 475.027344 243.402344 475.605469 237.03125 476.183594 235.292969 C 476.761719 224.867188 474.445312 216.757812 468.074219 210.386719 C 455.914062 198.226562 435.640625 198.804688 418.84375 199.382812 C 417.6875 199.382812 415.949219 199.382812 414.789062 199.382812 C 415.367188 198.804688 415.367188 198.804688 415.949219 198.226562 C 421.738281 191.855469 422.898438 182.585938 422.898438 177.953125 C 425.792969 176.214844 434.480469 175.636719 441.433594 175.636719 C 441.433594 175.636719 442.011719 175.636719 442.011719 175.636719 C 442.589844 175.636719 443.171875 175.636719 443.75 175.636719 C 450.699219 175.058594 455.332031 171.582031 457.648438 168.6875 C 464.019531 160.578125 462.285156 148.992188 461.125 143.203125 L 460.546875 140.304688 C 459.964844 138.566406 459.964844 135.671875 459.386719 133.355469 C 501.667969 150.730469 535.261719 185.484375 552.058594 228.921875 C 550.320312 229.5 549.164062 229.5 548.003906 230.082031 C 542.792969 231.816406 539.316406 232.976562 535.839844 231.816406 C 535.261719 231.816406 532.945312 230.082031 531.785156 229.5 C 528.3125 227.183594 523.097656 223.710938 516.726562 223.710938 C 509.777344 223.128906 502.828125 226.027344 498.195312 231.816406 C 493.558594 237.03125 491.824219 244.558594 493.558594 251.511719 C 493.558594 252.089844 493.558594 252.089844 493.558594 252.667969 C 490.085938 251.511719 486.03125 250.929688 481.398438 252.089844 C 475.027344 253.828125 470.390625 257.882812 467.496094 263.09375 C 464.601562 269.464844 464.601562 277.574219 468.074219 284.523438 C 468.65625 285.683594 469.234375 286.839844 469.8125 288 C 476.183594 283.367188 482.554688 279.3125 490.085938 276.414062 C 489.503906 275.835938 489.503906 275.835938 489.503906 275.257812 C 490.085938 275.257812 490.664062 275.835938 491.824219 275.835938 C 498.773438 273.519531 505.722656 271.78125 513.253906 271.203125 C 514.410156 271.203125 515.570312 271.203125 516.148438 271.203125 C 524.257812 261.9375 518.464844 251.511719 516.726562 248.035156 C 516.726562 248.035156 516.726562 248.035156 516.726562 247.457031 C 517.308594 248.035156 518.464844 248.613281 519.042969 249.195312 C 521.941406 251.511719 525.996094 253.828125 531.207031 254.984375 Z M 260.144531 278.734375 C 259.566406 288 259.566406 296.6875 260.722656 304.796875 C 262.460938 319.277344 272.886719 327.964844 281.574219 334.914062 C 289.105469 340.707031 293.160156 344.761719 293.738281 349.394531 C 293.738281 352.289062 292.578125 355.765625 290.84375 359.242188 C 289.683594 362.136719 288.523438 365.613281 287.367188 369.664062 L 287.367188 370.246094 C 286.207031 376.035156 284.472656 381.828125 286.207031 389.359375 C 286.207031 389.9375 285.628906 392.253906 283.3125 395.152344 C 281.574219 396.886719 278.101562 399.785156 271.730469 399.203125 C 271.730469 399.203125 271.148438 399.203125 271.148438 399.203125 C 245.664062 369.664062 230.027344 331.4375 230.027344 289.15625 C 230.027344 281.628906 230.605469 273.519531 231.765625 265.992188 C 243.925781 267.148438 258.988281 275.257812 260.144531 278.734375 Z M 333.125 153.625 C 331.964844 157.101562 328.488281 159.996094 322.117188 162.894531 C 319.800781 164.050781 318.0625 164.632812 315.746094 165.210938 C 307.058594 168.6875 296.632812 172.738281 290.261719 183.746094 C 286.789062 189.535156 283.3125 190.117188 282.152344 190.117188 C 277.519531 190.695312 271.730469 187.21875 267.09375 183.746094 C 283.890625 162.894531 305.902344 145.519531 330.804688 134.511719 C 331.964844 136.832031 333.125 139.726562 333.125 140.882812 C 333.703125 146.097656 334.28125 150.730469 333.125 153.625 Z M 333.125 153.625 " fill-opacity="1" fill-rule="nonzero"/><path fill="#ffffff" d="M 229.449219 503.460938 C 227.710938 504.617188 225.972656 506.355469 224.234375 507.515625 C 219.601562 511.566406 218.441406 519.097656 222.496094 523.730469 C 224.8125 526.628906 228.289062 527.785156 231.183594 527.785156 C 233.503906 527.785156 236.398438 526.628906 238.714844 524.890625 C 239.875 523.730469 241.03125 523.152344 242.191406 522.574219 C 271.730469 568.910156 301.847656 615.824219 330.226562 664.476562 C 336.597656 659.84375 342.96875 655.789062 348.761719 650.574219 C 316.90625 596.710938 283.3125 544.003906 250.296875 492.453125 L 241.03125 477.976562 C 200.488281 415.421875 164.578125 352.871094 167.472656 282.785156 C 168.632812 256.144531 173.84375 230.082031 183.113281 205.175781 C 223.078125 96.285156 319.800781 57.480469 396.835938 57.480469 C 473.867188 57.480469 570.59375 96.285156 610.558594 204.597656 C 618.664062 226.027344 623.300781 248.613281 625.617188 271.203125 L 645.308594 244.558594 C 642.414062 228.34375 638.359375 212.125 632.566406 196.488281 C 595.496094 96.285156 505.144531 34.3125 397.414062 34.3125 C 289.105469 34.3125 198.75 96.285156 161.683594 196.488281 C 151.257812 223.710938 146.042969 252.667969 144.886719 281.628906 C 141.410156 358.660156 179.058594 424.6875 221.339844 490.71875 Z M 229.449219 503.460938 " fill-opacity="1" fill-rule="nonzero"/><path fill="#ffffff" d="M 515.570312 294.949219 C 514.988281 294.949219 514.410156 294.949219 514.410156 294.949219 C 503.40625 295.527344 492.980469 299.582031 483.714844 306.535156 L 446.066406 338.390625 C 442.589844 341.285156 441.433594 345.917969 442.589844 350.550781 C 443.75 355.1875 447.222656 358.082031 451.859375 358.660156 L 576.382812 377.773438 L 530.050781 440.90625 L 465.179688 440.328125 C 461.703125 440.328125 458.230469 442.066406 455.914062 444.960938 L 433.902344 475.078125 C 431.585938 477.976562 431.007812 482.03125 432.164062 485.503906 C 433.324219 488.980469 436.21875 491.875 439.695312 493.035156 L 510.9375 513.304688 C 509.199219 517.941406 509.777344 523.152344 513.832031 526.628906 C 516.148438 528.363281 518.464844 529.523438 521.359375 529.523438 C 523.679688 529.523438 525.996094 528.945312 528.3125 527.207031 L 562.484375 600.765625 C 564.222656 604.238281 567.695312 607.136719 571.75 607.136719 C 572.332031 607.136719 572.332031 607.136719 572.910156 607.136719 C 576.382812 607.136719 579.859375 605.398438 582.175781 602.5 L 607.082031 568.910156 C 609.398438 566.011719 609.976562 562.539062 608.820312 559.0625 L 592.601562 491.296875 L 638.9375 428.164062 L 691.066406 545.160156 C 692.800781 549.214844 696.855469 552.113281 701.492188 552.113281 C 706.125 552.113281 710.179688 549.214844 711.914062 545.160156 L 731.609375 499.40625 C 736.242188 487.820312 736.820312 475.660156 733.925781 463.496094 C 733.925781 462.917969 733.925781 462.917969 733.347656 462.335938 L 694.539062 352.289062 L 761.148438 268.886719 C 774.46875 250.929688 771.574219 224.867188 754.195312 210.96875 C 746.089844 204.015625 735.664062 201.121094 725.238281 202.277344 C 714.8125 203.4375 704.964844 209.230469 698.59375 218.496094 L 631.988281 301.898438 Z M 647.046875 320.433594 L 717.707031 232.398438 C 720.605469 228.34375 724.65625 226.027344 728.710938 225.445312 C 732.765625 224.867188 737.402344 226.027344 740.296875 228.921875 C 747.824219 235.292969 748.984375 246.875 743.191406 254.984375 L 672.53125 343.023438 C 670.214844 345.917969 669.636719 349.972656 670.792969 354.027344 L 711.335938 469.867188 C 713.074219 476.816406 712.496094 484.925781 709.597656 491.296875 L 700.332031 512.726562 L 651.101562 401.523438 C 649.363281 398.046875 645.886719 395.152344 641.832031 394.570312 C 637.777344 393.992188 633.726562 395.730469 631.40625 399.203125 L 570.59375 483.1875 C 568.277344 486.082031 567.695312 489.558594 568.855469 493.035156 L 585.074219 560.800781 L 575.226562 574.121094 L 541.632812 502.300781 C 540.472656 499.40625 537.578125 497.089844 534.101562 495.929688 L 461.703125 475.660156 L 470.390625 464.074219 L 535.261719 464.652344 C 538.738281 464.652344 542.210938 462.917969 544.527344 460.019531 L 605.921875 376.617188 C 608.238281 373.140625 608.820312 369.085938 607.082031 365.03125 C 605.34375 361.558594 602.449219 358.660156 598.394531 358.082031 L 480.238281 340.128906 L 498.195312 325.066406 C 503.40625 321.015625 509.199219 318.695312 514.988281 318.117188 L 636.621094 325.066406 C 640.675781 325.648438 644.730469 323.910156 647.046875 320.433594 Z M 647.046875 320.433594 " fill-opacity="1" fill-rule="nonzero"/></svg>